# Blender 4.0.2
# www.blender.org
mtllib untitled.mtl
o Cylinder
v -1.000000 -0.000000 1.000000
v -1.000000 -0.000000 -1.000000
v -0.955573 -0.294755 1.000000
v -0.955573 -0.294755 -1.000000
v -0.826239 -0.563320 1.000000
v -0.826239 -0.563320 -1.000000
v -0.623490 -0.781832 1.000000
v -0.623490 -0.781832 -1.000000
v -0.365341 -0.930874 1.000000
v -0.365341 -0.930874 -1.000000
v -0.074730 -0.997204 1.000000
v -0.074730 -0.997204 -1.000000
v 0.222521 -0.974928 1.000000
v 0.222521 -0.974928 -1.000000
v 0.500000 -0.866025 1.000000
v 0.500000 -0.866025 -1.000000
v 0.733052 -0.680173 1.000000
v 0.733052 -0.680173 -1.000000
v 0.900969 -0.433884 1.000000
v 0.900969 -0.433884 -1.000000
v 0.988831 -0.149042 1.000000
v 0.988831 -0.149042 -1.000000
v 0.988831 0.149042 1.000000
v 0.988831 0.149042 -1.000000
v 0.900969 0.433884 1.000000
v 0.900969 0.433884 -1.000000
v 0.733052 0.680173 1.000000
v 0.733052 0.680173 -1.000000
v 0.500000 0.866025 1.000000
v 0.500000 0.866025 -1.000000
v 0.222521 0.974928 1.000000
v 0.222521 0.974928 -1.000000
v -0.074730 0.997204 1.000000
v -0.074730 0.997204 -1.000000
v -0.365341 0.930874 1.000000
v -0.365341 0.930874 -1.000000
v -0.623490 0.781831 1.000000
v -0.623490 0.781831 -1.000000
v -0.826239 0.563320 1.000000
v -0.826239 0.563320 -1.000000
v -0.955573 0.294755 1.000000
v -0.955573 0.294755 -1.000000
vn -0.9888 -0.1490 -0.0000
vn -0.9010 -0.4339 -0.0000
vn -0.7331 -0.6802 -0.0000
vn -0.5000 -0.8660 -0.0000
vn -0.2225 -0.9749 -0.0000
vn 0.0747 -0.9972 -0.0000
vn 0.3653 -0.9309 -0.0000
vn 0.6235 -0.7818 -0.0000
vn 0.8262 -0.5633 -0.0000
vn 0.9556 -0.2948 -0.0000
vn 1.0000 -0.0000 -0.0000
vn 0.9556 0.2948 -0.0000
vn 0.8262 0.5633 -0.0000
vn 0.6235 0.7818 -0.0000
vn 0.3653 0.9309 -0.0000
vn 0.0747 0.9972 -0.0000
vn -0.2225 0.9749 -0.0000
vn -0.5000 0.8660 -0.0000
vn -0.7331 0.6802 -0.0000
vn -0.0000 -0.0000 -1.0000
vn -0.9010 0.4339 -0.0000
vn -0.9888 0.1490 -0.0000
vn -0.0000 -0.0000 1.0000
vt 1.000000 0.500000
vt 1.000000 1.000000
vt 0.952381 1.000000
vt 0.952381 0.500000
vt 0.904762 1.000000
vt 0.904762 0.500000
vt 0.857143 1.000000
vt 0.857143 0.500000
vt 0.809524 1.000000
vt 0.809524 0.500000
vt 0.761905 1.000000
vt 0.761905 0.500000
vt 0.714286 1.000000
vt 0.714286 0.500000
vt 0.666667 1.000000
vt 0.666667 0.500000
vt 0.619048 1.000000
vt 0.619048 0.500000
vt 0.571429 1.000000
vt 0.571429 0.500000
vt 0.523810 1.000000
vt 0.523810 0.500000
vt 0.476191 1.000000
vt 0.476191 0.500000
vt 0.428571 1.000000
vt 0.428571 0.500000
vt 0.380952 1.000000
vt 0.380952 0.500000
vt 0.333333 1.000000
vt 0.333333 0.500000
vt 0.285714 1.000000
vt 0.285714 0.500000
vt 0.238095 1.000000
vt 0.238095 0.500000
vt 0.190476 1.000000
vt 0.190476 0.500000
vt 0.142857 1.000000
vt 0.142857 0.500000
vt 0.095238 1.000000
vt 0.095238 0.500000
vt 0.320741 0.479337
vt 0.250000 0.490000
vt 0.179259 0.479337
vt 0.114803 0.448297
vt 0.062360 0.399638
vt 0.026590 0.337682
vt 0.010671 0.267935
vt 0.016017 0.196595
vt 0.042154 0.130000
vt 0.086759 0.074068
vt 0.145868 0.033767
vt 0.214230 0.012681
vt 0.285770 0.012681
vt 0.354132 0.033767
vt 0.413241 0.074068
vt 0.457846 0.130000
vt 0.483983 0.196595
vt 0.489329 0.267935
vt 0.473410 0.337682
vt 0.437640 0.399638
vt 0.385197 0.448297
vt 0.047619 1.000000
vt 0.047619 0.500000
vt 0.000000 1.000000
vt 0.000000 0.500000
vt 0.750000 0.490000
vt 0.820741 0.479337
vt 0.885197 0.448297
vt 0.937640 0.399638
vt 0.973410 0.337682
vt 0.989329 0.267935
vt 0.983983 0.196595
vt 0.957846 0.130000
vt 0.913242 0.074068
vt 0.854132 0.033767
vt 0.785770 0.012681
vt 0.714230 0.012681
vt 0.645868 0.033767
vt 0.586758 0.074068
vt 0.542154 0.130000
vt 0.516017 0.196595
vt 0.510671 0.267935
vt 0.526590 0.337682
vt 0.562360 0.399638
vt 0.614803 0.448297
vt 0.679259 0.479337
s 0
f 1/1/1 2/2/1 4/3/1 3/4/1
f 3/4/2 4/3/2 6/5/2 5/6/2
f 5/6/3 6/5/3 8/7/3 7/8/3
f 7/8/4 8/7/4 10/9/4 9/10/4
f 9/10/5 10/9/5 12/11/5 11/12/5
f 11/12/6 12/11/6 14/13/6 13/14/6
f 13/14/7 14/13/7 16/15/7 15/16/7
f 15/16/8 16/15/8 18/17/8 17/18/8
f 17/18/9 18/17/9 20/19/9 19/20/9
f 19/20/10 20/19/10 22/21/10 21/22/10
f 21/22/11 22/21/11 24/23/11 23/24/11
f 23/24/12 24/23/12 26/25/12 25/26/12
f 25/26/13 26/25/13 28/27/13 27/28/13
f 27/28/14 28/27/14 30/29/14 29/30/14
f 29/30/15 30/29/15 32/31/15 31/32/15
f 31/32/16 32/31/16 34/33/16 33/34/16
f 33/34/17 34/33/17 36/35/17 35/36/17
f 35/36/18 36/35/18 38/37/18 37/38/18
f 37/38/19 38/37/19 40/39/19 39/40/19
f 4/41/20 2/42/20 42/43/20 40/44/20 38/45/20 36/46/20 34/47/20 32/48/20 30/49/20 28/50/20 26/51/20 24/52/20 22/53/20 20/54/20 18/55/20 16/56/20 14/57/20 12/58/20 10/59/20 8/60/20 6/61/20
f 39/40/21 40/39/21 42/62/21 41/63/21
f 41/63/22 42/62/22 2/64/22 1/65/22
f 1/66/23 3/67/23 5/68/23 7/69/23 9/70/23 11/71/23 13/72/23 15/73/23 17/74/23 19/75/23 21/76/23 23/77/23 25/78/23 27/79/23 29/80/23 31/81/23 33/82/23 35/83/23 37/84/23 39/85/23 41/86/23
